%TF.FileFunction,Copper,L1,Top,Signal*%
%TF.GenerationSoftware,Samvit,HardwareAgent,1.0*%
%FSLAX46Y46*%
%MOMM*%
%LPD*%
G04 Layer: F.Cu *
G01*
X+005080000Y+055880000D02*
X+035560000Y+055880000D01*
G01*
X+035560000Y+055880000D02*
X+035560000Y+035560000D01*
G01*
X+005080000Y+055880000D02*
X+005080000Y+005080000D01*
G01*
X+005080000Y+055880000D02*
X+035560000Y+055880000D01*
G01*
X+005080000Y+055880000D02*
X+071120000Y+055880000D01*
G01*
X+071120000Y+055880000D02*
X+071120000Y+035560000D01*
G01*
X+005080000Y+055880000D02*
X+071120000Y+055880000D01*
G01*
X+005080000Y+055880000D02*
X+078740000Y+055880000D01*
G01*
X+005080000Y+055880000D02*
X+035560000Y+055880000D01*
G01*
X+035560000Y+055880000D02*
X+035560000Y+035560000D01*
G01*
X+005080000Y+055880000D02*
X+005080000Y+005080000D01*
G01*
X+005080000Y+055880000D02*
X+035560000Y+055880000D01*
G01*
X+005080000Y+055880000D02*
X+071120000Y+055880000D01*
G01*
X+071120000Y+055880000D02*
X+071120000Y+035560000D01*
G01*
X+005080000Y+055880000D02*
X+071120000Y+055880000D01*
G01*
X+005080000Y+055880000D02*
X+078740000Y+055880000D01*
G01*
X+035560000Y+035560000D02*
X+005080000Y+035560000D01*
G01*
X+005080000Y+035560000D02*
X+005080000Y+005080000D01*
G01*
X+035560000Y+035560000D02*
X+071120000Y+035560000D01*
G01*
X+035560000Y+035560000D02*
X+071120000Y+035560000D01*
G01*
X+071120000Y+035560000D02*
X+071120000Y+055880000D01*
G01*
X+035560000Y+035560000D02*
X+078740000Y+035560000D01*
G01*
X+078740000Y+035560000D02*
X+078740000Y+055880000D01*
G01*
X+035560000Y+035560000D02*
X+035560000Y+055880000D01*
G01*
X+035560000Y+035560000D02*
X+035560000Y+055880000D01*
M02*
